<svg xmlns="http://www.w3.org/2000/svg" width="980" height="460" viewBox="0 0 980 460">
<rect width="100%" height="100%" fill="#fbfaf7"/>
<text x="86" y="34" font-family="Arial" font-size="24" font-weight="700" fill="#1f2933">Ventas netas semanales por formato</text>
<line x1="86" y1="58.0" x2="952" y2="58.0" stroke="#e5e2dc"/>
<text x="22" y="62.0" font-family="Arial" font-size="12" fill="#667085">$354,320</text>
<line x1="86" y1="144.0" x2="952" y2="144.0" stroke="#e5e2dc"/>
<text x="22" y="148.0" font-family="Arial" font-size="12" fill="#667085">$265,740</text>
<line x1="86" y1="230.0" x2="952" y2="230.0" stroke="#e5e2dc"/>
<text x="22" y="234.0" font-family="Arial" font-size="12" fill="#667085">$177,160</text>
<line x1="86" y1="316.0" x2="952" y2="316.0" stroke="#e5e2dc"/>
<text x="22" y="320.0" font-family="Arial" font-size="12" fill="#667085">$88,580</text>
<line x1="86" y1="402.0" x2="952" y2="402.0" stroke="#e5e2dc"/>
<text x="22" y="406.0" font-family="Arial" font-size="12" fill="#667085">$0</text>
<polyline points="86.0,306.9 97.2,301.0 108.5,310.7 119.7,297.5 131.0,304.4 142.2,308.2 153.5,320.5 164.7,295.0 176.0,313.8 187.2,294.1 198.5,304.2 209.7,293.7 221.0,312.6 232.2,306.3 243.5,299.1 254.7,304.2 265.9,304.8 277.2,289.4 288.4,304.5 299.7,291.5 310.9,295.6 322.2,305.1 333.4,299.4 344.7,289.3 355.9,287.3 367.2,294.6 378.4,285.8 389.7,278.4 400.9,286.7 412.2,288.5 423.4,290.1 434.6,294.5 445.9,292.6 457.1,294.6 468.4,294.4 479.6,286.7 490.9,288.1 502.1,296.8 513.4,294.3 524.6,267.3 535.9,283.5 547.1,296.2 558.4,297.0 569.6,292.7 580.9,269.9 592.1,277.9 603.4,288.6 614.6,255.4 625.8,255.3 637.1,237.9 648.3,244.8 659.6,258.8 670.8,285.3 682.1,308.7 693.3,295.4 704.6,291.1 715.8,307.5 727.1,304.7 738.3,306.4 749.6,303.7 760.8,305.2 772.1,295.8 783.3,291.4 794.5,294.6 805.8,292.9 817.0,303.6 828.3,283.5 839.5,296.5 850.8,312.7 862.0,294.2 873.3,278.0 884.5,283.8 895.8,293.0 907.0,284.2 918.3,300.1 929.5,277.7 940.8,293.2 952.0,293.1" fill="none" stroke="#D97941" stroke-width="3" stroke-linejoin="round"/>
<polyline points="86.0,380.8 97.2,387.1 108.5,380.3 119.7,378.3 131.0,380.5 142.2,382.6 153.5,379.1 164.7,386.9 176.0,381.5 187.2,382.2 198.5,385.3 209.7,382.4 221.0,386.0 232.2,376.0 243.5,383.5 254.7,385.2 265.9,383.1 277.2,386.4 288.4,377.4 299.7,376.3 310.9,379.1 322.2,373.1 333.4,368.9 344.7,373.8 355.9,377.8 367.2,375.5 378.4,373.6 389.7,377.8 400.9,376.2 412.2,366.8 423.4,373.8 434.6,385.2 445.9,373.3 457.1,374.5 468.4,378.3 479.6,384.3 490.9,374.1 502.1,378.4 513.4,376.7 524.6,368.0 535.9,369.9 547.1,381.9 558.4,375.8 569.6,367.1 580.9,375.3 592.1,368.3 603.4,369.8 614.6,367.0 625.8,363.9 637.1,365.2 648.3,363.8 659.6,366.3 670.8,372.1 682.1,371.6 693.3,363.6 704.6,376.8 715.8,375.3 727.1,376.5 738.3,371.4 749.6,372.6 760.8,373.3 772.1,374.0 783.3,377.3 794.5,373.9 805.8,374.4 817.0,368.7 828.3,374.5 839.5,377.8 850.8,377.0 862.0,372.5 873.3,373.3 884.5,365.0 895.8,361.6 907.0,373.9 918.3,373.9 929.5,375.8 940.8,375.6 952.0,373.4" fill="none" stroke="#7B4B94" stroke-width="3" stroke-linejoin="round"/>
<polyline points="86.0,206.0 97.2,216.8 108.5,201.1 119.7,201.7 131.0,207.0 142.2,212.9 153.5,233.7 164.7,215.1 176.0,216.7 187.2,184.3 198.5,193.8 209.7,187.8 221.0,174.5 232.2,196.6 243.5,170.6 254.7,189.8 265.9,195.8 277.2,193.8 288.4,202.5 299.7,200.2 310.9,169.7 322.2,171.8 333.4,197.4 344.7,181.6 355.9,196.0 367.2,197.0 378.4,172.4 389.7,160.7 400.9,147.6 412.2,143.6 423.4,185.3 434.6,187.4 445.9,193.9 457.1,193.7 468.4,192.4 479.6,204.1 490.9,200.8 502.1,186.9 513.4,190.4 524.6,164.8 535.9,166.5 547.1,150.2 558.4,180.0 569.6,153.5 580.9,178.5 592.1,155.5 603.4,136.6 614.6,151.1 625.8,94.8 637.1,120.1 648.3,83.5 659.6,111.8 670.8,170.2 682.1,173.1 693.3,192.1 704.6,168.7 715.8,195.2 727.1,194.7 738.3,198.8 749.6,206.4 760.8,180.4 772.1,184.7 783.3,168.8 794.5,167.4 805.8,161.4 817.0,176.6 828.3,177.4 839.5,189.0 850.8,179.1 862.0,163.3 873.3,177.9 884.5,180.9 895.8,171.6 907.0,180.9 918.3,181.1 929.5,182.8 940.8,161.5 952.0,169.7" fill="none" stroke="#176B87" stroke-width="3" stroke-linejoin="round"/>
<polyline points="86.0,205.3 97.2,188.0 108.5,197.9 119.7,206.4 131.0,225.3 142.2,222.0 153.5,216.0 164.7,196.9 176.0,200.1 187.2,201.1 198.5,202.3 209.7,198.5 221.0,180.9 232.2,207.3 243.5,188.8 254.7,203.7 265.9,222.2 277.2,188.3 288.4,190.5 299.7,174.4 310.9,174.2 322.2,154.7 333.4,194.4 344.7,185.7 355.9,186.1 367.2,202.5 378.4,155.2 389.7,183.6 400.9,161.2 412.2,138.3 423.4,178.6 434.6,194.3 445.9,196.0 457.1,170.9 468.4,164.1 479.6,196.6 490.9,197.6 502.1,184.0 513.4,183.6 524.6,170.2 535.9,182.3 547.1,184.2 558.4,157.9 569.6,185.2 580.9,151.3 592.1,159.1 603.4,124.7 614.6,128.6 625.8,112.5 637.1,98.5 648.3,97.0 659.6,106.0 670.8,169.5 682.1,188.5 693.3,190.0 704.6,181.6 715.8,184.7 727.1,209.9 738.3,203.5 749.6,199.5 760.8,189.1 772.1,182.1 783.3,189.5 794.5,153.5 805.8,179.8 817.0,172.4 828.3,175.6 839.5,168.1 850.8,200.2 862.0,197.3 873.3,156.7 884.5,170.0 895.8,174.4 907.0,181.2 918.3,186.4 929.5,189.2 940.8,187.5 952.0,191.6" fill="none" stroke="#3E8E7E" stroke-width="3" stroke-linejoin="round"/>
<rect x="86" y="426" width="12" height="12" fill="#D97941"/>
<text x="104" y="436" font-family="Arial" font-size="13" fill="#344054">DESCUENTO</text>
<rect x="261" y="426" width="12" height="12" fill="#7B4B94"/>
<text x="279" y="436" font-family="Arial" font-size="13" fill="#344054">EXPRESS</text>
<rect x="436" y="426" width="12" height="12" fill="#176B87"/>
<text x="454" y="436" font-family="Arial" font-size="13" fill="#344054">HIPERMERCADO</text>
<rect x="611" y="426" width="12" height="12" fill="#3E8E7E"/>
<text x="629" y="436" font-family="Arial" font-size="13" fill="#344054">SUPERMERCADO</text>
<text x="54.0" y="444" font-family="Arial" font-size="11" fill="#667085">2024-01-01</text>
<text x="222.7" y="444" font-family="Arial" font-size="11" fill="#667085">2024-04-15</text>
<text x="391.4" y="444" font-family="Arial" font-size="11" fill="#667085">2024-07-29</text>
<text x="571.4" y="444" font-family="Arial" font-size="11" fill="#667085">2024-11-18</text>
<text x="740.1" y="444" font-family="Arial" font-size="11" fill="#667085">2025-03-03</text>
<text x="920.0" y="444" font-family="Arial" font-size="11" fill="#667085">2025-06-23</text>
</svg>