<svg xmlns="http://www.w3.org/2000/svg" width="880" height="430" viewBox="0 0 880 430">
<rect width="100%" height="100%" fill="#fbfaf7"/>
<text x="190" y="34" font-family="Arial" font-size="24" font-weight="700" fill="#1f2933">Ventas netas por categoria</text>
<text x="20" y="88.1" font-family="Arial" font-size="13" fill="#344054">Electrónica</text>
<rect x="190" y="63.0" width="607.4" height="32.2" rx="3" fill="#3E8E7E"/>
<text x="805.4" y="88.1" font-family="Arial" font-size="12" fill="#344054">$24,593,902</text>
<text x="20" y="130.4" font-family="Arial" font-size="13" fill="#344054">Hogar</text>
<rect x="190" y="105.2" width="269.4" height="32.2" rx="3" fill="#3E8E7E"/>
<text x="467.4" y="130.4" font-family="Arial" font-size="12" fill="#344054">$10,907,516</text>
<text x="20" y="172.6" font-family="Arial" font-size="13" fill="#344054">Ropa</text>
<rect x="190" y="147.5" width="91.2" height="32.2" rx="3" fill="#3E8E7E"/>
<text x="289.2" y="172.6" font-family="Arial" font-size="12" fill="#344054">$3,691,577</text>
<text x="20" y="214.9" font-family="Arial" font-size="13" fill="#344054">Alimentos</text>
<rect x="190" y="189.8" width="64.5" height="32.2" rx="3" fill="#3E8E7E"/>
<text x="262.5" y="214.9" font-family="Arial" font-size="12" fill="#344054">$2,613,497</text>
<text x="20" y="257.1" font-family="Arial" font-size="13" fill="#344054">Juguetes</text>
<rect x="190" y="232.0" width="59.8" height="32.2" rx="3" fill="#3E8E7E"/>
<text x="257.8" y="257.1" font-family="Arial" font-size="12" fill="#344054">$2,419,620</text>
<text x="20" y="299.4" font-family="Arial" font-size="13" fill="#344054">Cuidado Personal</text>
<rect x="190" y="274.2" width="28.3" height="32.2" rx="3" fill="#3E8E7E"/>
<text x="226.3" y="299.4" font-family="Arial" font-size="12" fill="#344054">$1,144,473</text>
<text x="20" y="341.6" font-family="Arial" font-size="13" fill="#344054">Bebidas</text>
<rect x="190" y="316.5" width="19.6" height="32.2" rx="3" fill="#3E8E7E"/>
<text x="217.6" y="341.6" font-family="Arial" font-size="12" fill="#344054">$793,878</text>
<text x="20" y="383.9" font-family="Arial" font-size="13" fill="#344054">Limpieza</text>
<rect x="190" y="358.8" width="15.5" height="32.2" rx="3" fill="#3E8E7E"/>
<text x="213.5" y="383.9" font-family="Arial" font-size="12" fill="#344054">$628,122</text>
</svg>