<svg xmlns="http://www.w3.org/2000/svg" width="880" height="430" viewBox="0 0 880 430">
<rect width="100%" height="100%" fill="#fbfaf7"/>
<text x="190" y="34" font-family="Arial" font-size="24" font-weight="700" fill="#1f2933">GMV estimado perdido por quiebres</text>
<text x="20" y="88.1" font-family="Arial" font-size="13" fill="#344054">Electrónica</text>
<rect x="190" y="63.0" width="607.4" height="32.2" rx="3" fill="#C04B37"/>
<text x="805.4" y="88.1" font-family="Arial" font-size="12" fill="#344054">$31,254,439</text>
<text x="20" y="130.4" font-family="Arial" font-size="13" fill="#344054">Hogar</text>
<rect x="190" y="105.2" width="270.1" height="32.2" rx="3" fill="#C04B37"/>
<text x="468.1" y="130.4" font-family="Arial" font-size="12" fill="#344054">$13,896,242</text>
<text x="20" y="172.6" font-family="Arial" font-size="13" fill="#344054">Ropa</text>
<rect x="190" y="147.5" width="91.4" height="32.2" rx="3" fill="#C04B37"/>
<text x="289.4" y="172.6" font-family="Arial" font-size="12" fill="#344054">$4,702,480</text>
<text x="20" y="214.9" font-family="Arial" font-size="13" fill="#344054">Alimentos</text>
<rect x="190" y="189.8" width="64.5" height="32.2" rx="3" fill="#C04B37"/>
<text x="262.5" y="214.9" font-family="Arial" font-size="12" fill="#344054">$3,320,043</text>
<text x="20" y="257.1" font-family="Arial" font-size="13" fill="#344054">Juguetes</text>
<rect x="190" y="232.0" width="59.4" height="32.2" rx="3" fill="#C04B37"/>
<text x="257.4" y="257.1" font-family="Arial" font-size="12" fill="#344054">$3,055,006</text>
<text x="20" y="299.4" font-family="Arial" font-size="13" fill="#344054">Cuidado Personal</text>
<rect x="190" y="274.2" width="28.5" height="32.2" rx="3" fill="#C04B37"/>
<text x="226.5" y="299.4" font-family="Arial" font-size="12" fill="#344054">$1,466,152</text>
<text x="20" y="341.6" font-family="Arial" font-size="13" fill="#344054">Bebidas</text>
<rect x="190" y="316.5" width="19.6" height="32.2" rx="3" fill="#C04B37"/>
<text x="217.6" y="341.6" font-family="Arial" font-size="12" fill="#344054">$1,007,870</text>
<text x="20" y="383.9" font-family="Arial" font-size="13" fill="#344054">Limpieza</text>
<rect x="190" y="358.8" width="15.5" height="32.2" rx="3" fill="#C04B37"/>
<text x="213.5" y="383.9" font-family="Arial" font-size="12" fill="#344054">$795,829</text>
</svg>